<?xml version="1.0"?>
<svg xmlns="http://www.w3.org/2000/svg" xmlns:lc="http://www.librecad.org" xmlns:xlink="http://www.w3.org/1999/xlink" width="229.35028843mm" height="229.35028843mm" viewBox="0 0 229.35028843 229.35028843">
    <g lc:layername="0" lc:is_locked="false" lc:is_construction="false" fill="none" stroke="black" stroke-width="1">
        <line x1="67.17514421" y1="0" x2="0" y2="67.17514421"/>
        <line x1="0" y1="162.17514421" x2="67.17514421" y2="229.35028843"/>
        <line x1="162.17514421" y1="229.35028843" x2="229.35028843" y2="162.17514421"/>
        <line x1="229.35028843" y1="67.17514421" x2="162.17514421" y2="0"/>
        <line x1="162.17514421" y1="0" x2="67.17514421" y2="0"/>
        <line x1="0" y1="67.17514421" x2="0" y2="162.17514421"/>
        <line x1="229.35028843" y1="162.17514421" x2="229.35028843" y2="67.17514421"/>
        <line x1="162.17514421" y1="229.35028843" x2="67.17514421" y2="229.35028843"/>
        <circle cx="7.5" cy="70.28174593" r="3.5"/>
        <circle cx="7.5" cy="159.06854249" r="3.5"/>
        <circle cx="70.28174593" cy="221.85028843" r="3.5"/>
        <circle cx="159.06854249" cy="221.85028843" r="3.5"/>
        <circle cx="221.85028843" cy="159.06854249" r="3.5"/>
        <circle cx="221.85028843" cy="70.28174593" r="3.5"/>
        <circle cx="159.06854249" cy="7.5" r="3.5"/>
        <circle cx="70.28174593" cy="7.5" r="3.5"/>
        <path d="M15,155.96194078 L73.38834765,214.35028843 L155.96194078,214.35028843 L214.35028843,155.96194078 L214.35028843,73.38834765 L155.96194078,15 L73.38834765,15 L15,73.38834765 L15,155.96194078 Z "/>
        <path d="M162.17514421,0 L229.35028843,67.17514421 L229.35028843,162.17514421 L162.17514421,229.35028843 L67.17514421,229.35028843 L0,162.17514421 L0,67.17514421 L67.17514421,0 L162.17514421,0 "/>
    </g>
</svg>
